# xmcd
#
# Track frame offsets: 
#        150
#        13747
#        32026
#        46573
#        62922
#        83758
#        101661
#        119367
#        132653
#        153535
#        174027
#        196058
#
# Disc length: 3162 seconds
#
# Revision: 0
# Processed by: cddbd v1.5.2PL0 Copyright (c) Steve Scherf et al.
# Submitted via: ExactAudioCopy v0.99pb4
#
DISCID=940c580c
DTITLE=Marcus Foster - Nameless Path
DYEAR=2011
DGENRE=Alt/Blues/Folk
TTITLE0=Old Birch Tree
TTITLE1=Shadows of the City
TTITLE2=Faint Stir of Madness
TTITLE3=You my Love
TTITLE4=The Room
TTITLE5=I Was Broken
TTITLE6=I Don't Need to Lose You to Know
TTITLE7=Rushes and Reeds
TTITLE8=I Belong Here
TTITLE9=I Don't Mind
TTITLE10=Movement
TTITLE11=Memory of Your Arms
EXTD=
EXTT0=
EXTT1=
EXTT2=
EXTT3=
EXTT4=
EXTT5=
EXTT6=
EXTT7=
EXTT8=
EXTT9=
EXTT10=
EXTT11=
PLAYORDER=
